<svg width="26" height="26" viewBox="0 0 26 26" fill="none" xmlns="http://www.w3.org/2000/svg">
<path d="M10.2514 24.005L1.34855 13.6662C1.01272 13.2762 1.01272 12.6961 1.34855 12.3061L10.2514 1.96785C10.6603 1.49281 11.3911 1.49281 11.8 1.96785L20.7023 12.3061C21.0381 12.6961 21.0381 13.2762 20.7023 13.6662L11.8 24.005C11.3911 24.4801 10.6603 24.4801 10.2514 24.005Z" fill="url(#paint0_linear_296_435)"/>
<path opacity="0.05" d="M20.7024 13.6662C21.0382 13.2762 21.0382 12.6961 20.7024 12.3061L12.1842 2.41309L9.036 5.77954C8.38654 6.50754 8.39412 7.60171 9.05604 8.32646L13.2247 12.8033C13.32 12.9079 13.32 13.0644 13.2247 13.1684L9.08583 17.6968C8.42771 18.4172 8.42446 19.513 9.0815 20.2485L12.1657 23.5793L20.7024 13.6662Z" fill="black"/>
<path opacity="0.07" d="M20.7025 13.6661C21.0383 13.2761 21.0383 12.696 20.7025 12.306L12.3619 2.61938L9.23811 5.95984C8.68127 6.58384 8.68723 7.52093 9.25436 8.14168L13.4246 12.6207C13.6148 12.8293 13.6153 13.1434 13.4246 13.3514L9.28577 17.8798C8.72136 18.4978 8.71811 19.4354 9.28036 20.0654L12.344 23.3739L20.7025 13.6661Z" fill="black"/>
<path opacity="0.09" d="M20.7027 13.6663C21.0385 13.2763 21.0385 12.6962 20.7027 12.3062L12.5398 2.82593L9.44036 6.13984C8.9767 6.65984 8.98103 7.43984 9.45228 7.95659L13.6247 12.4378C13.9097 12.7503 13.9097 13.2216 13.6247 13.5336L9.48586 18.0619C9.0157 18.5765 9.01137 19.3571 9.47882 19.8803L12.5214 23.1661L20.7027 13.6663Z" fill="black"/>
<path d="M24.6556 12.3201L15.3059 1.98136C14.878 1.50198 14.1283 1.50198 13.7004 1.98136L9.64224 6.32065C9.27228 6.73502 9.27607 7.36227 9.65036 7.77232L13.825 12.2557C14.2025 12.6695 14.2025 13.3027 13.825 13.7166L9.68611 18.2449C9.31128 18.6549 9.30803 19.2822 9.67799 19.6966L13.6804 24.0185C14.1083 24.4979 14.8579 24.4979 15.2859 24.0185L24.6562 13.6797C25.0012 13.2924 25.0012 12.7074 24.6556 12.3201Z" fill="url(#paint1_linear_296_435)"/>
<path opacity="0.61" d="M19.1328 18.1371L15.1332 13.748C14.7518 13.3292 14.7518 12.6706 15.1332 12.2519L19.1328 7.86274C19.5402 7.41587 20.2216 7.41587 20.6289 7.86274L24.6286 12.2519C25.0099 12.6706 25.0099 13.3292 24.6286 13.748L20.6289 18.1371C20.2216 18.5845 19.5407 18.5845 19.1328 18.1371Z" fill="url(#paint2_linear_296_435)"/>
<defs>
<linearGradient id="paint0_linear_296_435" x1="3.61489" y1="5.53798" x2="16.3262" y2="18.3137" gradientUnits="userSpaceOnUse">
<stop stop-color="#A39BA2"/>
<stop offset="0.314" stop-color="#CBC5CA"/>
<stop offset="0.666" stop-color="#B6B6B6"/>
<stop offset="1" stop-color="#B9B9B9"/>
</linearGradient>
<linearGradient id="paint1_linear_296_435" x1="9.11899" y1="6.49723" x2="21.1694" y2="20.7387" gradientUnits="userSpaceOnUse">
<stop stop-color="#CECECE"/>
<stop offset="0.413" stop-color="#AFAFAF"/>
<stop offset="0.878" stop-color="white"/>
<stop offset="1" stop-color="#B0ACAF"/>
</linearGradient>
<linearGradient id="paint2_linear_296_435" x1="14.8472" y1="12.9999" x2="24.9151" y2="12.9999" gradientUnits="userSpaceOnUse">
<stop stop-color="#FCFCFC"/>
<stop offset="0.62" stop-color="#D7D5D6"/>
<stop offset="1" stop-color="#BBB7BA"/>
</linearGradient>
</defs>
</svg>
