<svg width="28" height="28" viewBox="0 0 28 28" fill="none" xmlns="http://www.w3.org/2000/svg">
<path d="M13.9949 2.625C13.6755 2.625 13.3562 2.70334 13.0806 2.86084L4.40918 7.86646C3.84918 8.19021 3.5 8.80318 3.5 9.45068V18.5322C3.5 19.1885 3.84918 19.7927 4.40918 20.1165L6.68555 21.429C7.78805 21.9715 8.18118 21.9707 8.67993 21.9707C10.3162 21.9707 11.252 20.9821 11.252 19.2671V9.89673C11.252 9.75673 11.139 9.64209 10.999 9.64209H9.90527C9.75652 9.64209 9.65063 9.75673 9.65063 9.89673V19.2585C9.65063 20.0285 8.85534 20.7808 7.56909 20.1421L5.18848 18.7681C5.10098 18.7243 5.04834 18.6285 5.04834 18.5322V9.45923C5.04834 9.35423 5.10098 9.26563 5.18848 9.21313L13.8599 4.20923C13.9386 4.15673 14.0441 4.15673 14.1316 4.20923L22.803 9.21313C22.8905 9.26563 22.9431 9.35443 22.9431 9.45068V18.5322C22.9431 18.6285 22.8903 18.7243 22.8115 18.7681L14.1316 23.7822C14.0528 23.826 13.9386 23.826 13.8599 23.7822L11.6279 22.4612C11.5667 22.4174 11.4807 22.4091 11.4194 22.4441C10.7982 22.7941 10.6844 22.8376 10.1069 23.0388C9.96693 23.0826 9.74805 23.1698 10.1855 23.4148L13.0806 25.1306C13.3606 25.2881 13.6765 25.375 13.9915 25.375C14.3152 25.375 14.6292 25.2881 14.9092 25.1306L23.5908 20.1165C24.1508 19.7927 24.5 19.1885 24.5 18.5322V9.45923C24.5 8.80298 24.1508 8.19875 23.5908 7.875L14.9092 2.86084C14.6336 2.70334 14.3142 2.625 13.9949 2.625ZM16.3276 9.63013C13.8514 9.63013 12.373 10.6794 12.373 12.4294C12.373 14.3282 13.8417 14.8524 16.2217 15.0886C19.0654 15.3686 19.2842 15.7899 19.2842 16.3499C19.2842 17.3124 18.5067 17.7239 16.678 17.7239C14.3767 17.7239 13.8689 17.1456 13.7026 16.0081C13.6851 15.8856 13.5808 15.7979 13.4583 15.7979H12.3286C12.1886 15.7979 12.0842 15.9127 12.0842 16.0439C12.0842 17.5052 12.8805 19.2449 16.678 19.2449C19.4255 19.2449 21 18.1612 21 16.2712C21 14.3987 19.731 13.899 17.071 13.5403C14.3673 13.1903 14.0957 13.0065 14.0957 12.3765C14.0957 11.8515 14.3326 11.1614 16.3276 11.1614C18.1039 11.1614 18.7685 11.5451 19.0398 12.7439C19.066 12.8576 19.1617 12.9456 19.2842 12.9456H20.4138C20.4838 12.9456 20.5442 12.9109 20.5967 12.8584C20.6404 12.8146 20.667 12.744 20.6582 12.6653C20.4832 10.6003 19.1101 9.63013 16.3276 9.63013Z" fill="white"/>
</svg>
