<svg width="36" height="36" viewBox="0 0 36 36" fill="none" xmlns="http://www.w3.org/2000/svg">
<path d="M2.16 15.1201C0.9675 15.1201 0 16.1467 0 17.3392C0 18.5317 0.9675 19.4401 2.16 19.4401H4.32C5.5125 19.4401 6.48 18.4754 6.48 17.2801C6.48 16.0876 5.5125 15.1201 4.32 15.1201H2.16ZM7.2 15.1201V19.4401H7.92V15.8401H10.7803C11.1656 15.8401 11.52 16.1945 11.52 16.5826C11.52 16.9679 11.1656 17.2801 10.7803 17.2801H8.64L11.2359 19.4401H12.24L10.4541 18.0001H10.8338C11.6409 18.0001 12.24 17.387 12.24 16.5826C12.24 15.7754 11.6409 15.1201 10.8338 15.1201H7.2ZM15.84 15.1201C15.6459 15.1201 15.4716 15.2186 15.3675 15.3817L12.96 19.4401H13.7391L15.84 15.8401L17.1084 18.0001H15.12L15.84 18.7201H17.5303L17.955 19.4401H18.72L16.3013 15.3761C16.2 15.2157 16.0284 15.1201 15.84 15.1201ZM20.88 15.1201C19.6875 15.1201 18.72 16.0876 18.72 17.2801C18.72 18.4726 19.6875 19.4401 20.88 19.4401H23.76L24.48 18.7201H20.8659C20.0784 18.7201 19.44 18.0761 19.44 17.2801C19.44 16.487 20.0784 15.8401 20.8659 15.8401H23.76L24.48 15.1201H20.88ZM25.2 15.1201V19.0267C25.2 19.1336 25.2422 19.2348 25.3209 19.3164C25.3997 19.3951 25.5094 19.4401 25.6247 19.4401H28.8L29.52 18.7201H25.92V15.1201H25.2ZM32.4 15.1201C31.2075 15.1201 30.24 16.0876 30.24 17.2801C30.24 18.4726 31.2075 19.4401 32.4 19.4401H35.28L36 18.7201H32.3859C31.7222 18.7201 31.1681 18.2617 31.0106 17.6401H35.28L36 16.9201H31.0106C31.1709 16.3014 31.7222 15.8401 32.3859 15.8401H35.28L36 15.1201H32.4ZM2.14594 15.8401H4.33406C5.12156 15.8401 5.76 16.487 5.76 17.2801C5.76 18.0761 5.12156 18.7201 4.33406 18.7201H2.14594C1.35844 18.7201 0.72 18.0761 0.72 17.2801C0.72 16.487 1.35844 15.8401 2.14594 15.8401Z" fill="white"/>
</svg>
