<svg width="31" height="31" viewBox="0 0 31 31" fill="none" xmlns="http://www.w3.org/2000/svg">
<path d="M3.09998 2.47998C2.93555 2.48 2.77786 2.54532 2.66159 2.66159C2.54532 2.77786 2.48 2.93555 2.47998 3.09998V27.9C2.48 28.0644 2.54532 28.2221 2.66159 28.3384C2.77786 28.4546 2.93555 28.52 3.09998 28.52H27.9C28.0644 28.52 28.2221 28.4546 28.3384 28.3384C28.4546 28.2221 28.52 28.0644 28.52 27.9V3.09998C28.52 2.93555 28.4546 2.77786 28.3384 2.66159C28.2221 2.54532 28.0644 2.48 27.9 2.47998H3.09998ZM3.71998 3.71998H27.28V27.28H3.71998V3.71998ZM9.29998 14.26V16.3961H12.4V26.04H14.88V16.3961H17.98V14.26H9.29998ZM22.7487 14.266C20.8176 14.2583 18.6109 14.8435 18.6109 17.561C18.6109 21.1136 23.3977 21.1145 23.3977 22.7172C23.3977 22.8691 23.4621 23.9729 21.7726 23.9729C20.0831 23.9729 18.6751 22.9109 18.6751 22.9109V25.489C18.6751 25.489 26.0412 27.8715 26.0412 22.4992C26.0406 19.0117 21.2096 19.1861 21.2096 17.4532C21.2096 16.7818 21.6866 16.1539 23.0078 16.1539C24.329 16.1539 25.4987 16.9337 25.4987 16.9337L25.5859 14.6366C25.5859 14.6366 24.2506 14.272 22.7487 14.266Z" fill="white"/>
</svg>
