<svg width="26" height="26" viewBox="0 0 26 26" fill="none" xmlns="http://www.w3.org/2000/svg">
<path d="M17.9687 2.07197C17.5632 2.05834 17.1389 2.12903 16.7134 2.26697C15.8624 2.54287 14.9706 3.08052 14.0555 3.82494C13.6968 4.11668 13.3349 4.45017 12.9718 4.80401C12.6167 4.45915 12.2622 4.1336 11.9115 3.8483C10.9971 3.10448 10.1077 2.56763 9.25867 2.29237C8.40961 2.0171 7.56479 2.00857 6.87094 2.40916C6.17708 2.80976 5.76216 3.54512 5.57602 4.41807C5.38987 5.29101 5.40936 6.33058 5.59633 7.4944C5.66127 7.89865 5.7549 8.32274 5.86039 8.75479C5.46392 8.87494 5.07891 9.00128 4.72187 9.14072C3.64438 9.56157 2.75283 10.065 2.10359 10.6642C1.45436 11.2633 1.03516 11.9904 1.03516 12.7888C1.03516 13.5873 1.45436 14.3134 2.10359 14.9125C2.75283 15.5116 3.64438 16.0161 4.72187 16.437C5.10364 16.5861 5.51698 16.7203 5.94367 16.8473C5.79019 17.4208 5.66584 17.9773 5.58109 18.5048C5.39398 19.6695 5.37422 20.7092 5.56078 21.5842C5.74734 22.4591 6.16248 23.1986 6.85977 23.6012C7.55705 24.0038 8.40565 23.9939 9.25664 23.718C10.1076 23.4421 10.9984 22.9055 11.9135 22.161C12.2689 21.872 12.6283 21.5422 12.988 21.1921C13.3495 21.5442 13.7107 21.8758 14.0677 22.1661C14.9821 22.9099 15.8724 23.4468 16.7215 23.7221C17.5705 23.9973 18.4144 24.0059 19.1082 23.6053C19.8021 23.2047 20.217 22.4693 20.4031 21.5963C20.5893 20.7234 20.5688 19.6838 20.3818 18.52C20.2968 17.9911 20.1724 17.4337 20.0182 16.8585C20.459 16.7284 20.8854 16.5906 21.2786 16.437C22.3561 16.0161 23.2476 15.5116 23.8969 14.9125C24.5461 14.3134 24.9653 13.5873 24.9653 12.7888C24.9653 11.9904 24.5461 11.2633 23.8969 10.6642C23.2476 10.065 22.3561 9.56157 21.2786 9.14072C20.9164 8.99928 20.5255 8.8713 20.1228 8.74971C20.2292 8.31501 20.3236 7.88788 20.3889 7.48119C20.576 6.31644 20.5958 5.27573 20.4092 4.4008C20.2227 3.52588 19.8065 2.78736 19.1092 2.38479C18.7606 2.1835 18.3741 2.08561 17.9687 2.07197ZM17.9209 3.13026C18.1754 3.13721 18.3924 3.19776 18.578 3.30494C18.9494 3.51932 19.2238 3.93655 19.3702 4.62322C19.5167 5.3099 19.5116 6.23767 19.3387 7.31362C19.2796 7.682 19.1936 8.07242 19.096 8.47244C18.0326 8.21653 16.8675 8.02652 15.6256 7.91487C15.0018 7.0505 14.3605 6.26421 13.7142 5.56572C14.0559 5.23216 14.3954 4.9202 14.7268 4.65065C15.5722 3.96298 16.3725 3.49507 17.0404 3.27854C17.3743 3.17027 17.6665 3.1233 17.9209 3.13026ZM8.05312 3.1333C8.30901 3.12616 8.60181 3.17301 8.93672 3.28158C9.60654 3.49874 10.4083 3.96645 11.2544 4.65471C11.579 4.91879 11.9111 5.22395 12.2456 5.54947C11.5947 6.25351 10.9489 7.04803 10.321 7.91994C9.0836 8.03366 7.92257 8.22547 6.86383 8.4826C6.76683 8.08449 6.68205 7.69563 6.62312 7.32885C6.45013 6.25197 6.44581 5.32305 6.59266 4.6344C6.7395 3.94574 7.0162 3.52638 7.39094 3.31002C7.57831 3.20184 7.79724 3.14045 8.05312 3.1333ZM12.988 6.31424C13.4116 6.77517 13.8354 7.27974 14.2555 7.82244C13.8427 7.80523 13.4247 7.79502 13.0002 7.79502C12.5673 7.79502 12.1414 7.80556 11.7205 7.82346C12.1409 7.28026 12.5643 6.77556 12.988 6.31424ZM13.0002 8.84518C13.7074 8.84518 14.3966 8.87424 15.067 8.92338C15.5283 9.58594 15.9791 10.2888 16.4087 11.0328C16.7861 11.6866 17.1276 12.3393 17.4385 12.9838C17.1244 13.637 16.7771 14.2985 16.3945 14.9613C16.0576 15.5447 15.7059 16.0988 15.3484 16.633C14.5911 16.6963 13.8064 16.7315 13.0002 16.7315C12.1747 16.7315 11.3724 16.6942 10.5983 16.6279C10.2467 16.1014 9.9009 15.5546 9.56945 14.9806C9.18769 14.3193 8.84209 13.66 8.52844 13.0082C8.84341 12.3527 9.19056 11.6888 9.57453 11.0237C10.0018 10.2836 10.4513 9.58477 10.9101 8.92541C11.5877 8.87516 12.2849 8.84518 13.0002 8.84518ZM16.4066 9.05338C17.2635 9.16033 18.068 9.3089 18.8167 9.48705C18.5945 10.2156 18.3207 10.9767 17.989 11.7621C17.7736 11.3469 17.5505 10.9303 17.3095 10.5128C17.0176 10.0072 16.7141 9.5244 16.4066 9.05338ZM9.53898 9.06151C9.23785 9.52395 8.94155 9.99688 8.65539 10.4925C8.41128 10.9153 8.18359 11.3375 7.96578 11.758C7.63693 10.9773 7.36481 10.2206 7.14414 9.49619C7.8876 9.31765 8.68775 9.16968 9.53898 9.06151ZM19.8455 9.7633C20.2142 9.87484 20.5702 9.99123 20.8967 10.1188C21.89 10.5067 22.6757 10.9661 23.1849 11.436C23.6941 11.906 23.9152 12.3541 23.9152 12.7888C23.9152 13.2236 23.6942 13.6717 23.1849 14.1417C22.6757 14.6116 21.89 15.071 20.8967 15.4589C20.5338 15.6007 20.1351 15.7292 19.7206 15.851C19.4249 14.9364 19.0475 13.9823 18.5984 13.0082C19.1148 11.8899 19.532 10.7996 19.8455 9.7633ZM6.13766 9.76838C6.44761 10.7943 6.85948 11.8739 7.36859 12.9808C6.91648 13.9605 6.5372 14.9201 6.24023 15.8398C5.84033 15.7212 5.45514 15.5962 5.10375 15.4589C4.11047 15.071 3.32478 14.6116 2.81555 14.1417C2.30632 13.6717 2.08531 13.2236 2.08531 12.7888C2.08531 12.3541 2.30632 11.906 2.81555 11.436C3.32478 10.9661 4.11047 10.5067 5.10375 10.1188C5.42528 9.99319 5.77531 9.87845 6.13766 9.76838ZM13.0002 10.4001C11.5705 10.4001 10.4002 11.5703 10.4002 13.0001C10.4002 14.4299 11.5705 15.6001 13.0002 15.6001C14.43 15.6001 15.6002 14.4299 15.6002 13.0001C15.6002 11.5703 14.43 10.4001 13.0002 10.4001ZM13.0002 11.4401C13.868 11.4401 14.5602 12.1324 14.5602 13.0001C14.5602 13.8678 13.868 14.5601 13.0002 14.5601C12.1325 14.5601 11.4402 13.8678 11.4402 13.0001C11.4402 12.1324 12.1325 11.4401 13.0002 11.4401ZM18.0022 14.229C18.2749 14.8744 18.512 15.506 18.7111 16.115C18.0857 16.26 17.4199 16.3822 16.7195 16.4786C16.9211 16.1569 17.1202 15.8292 17.3146 15.4924C17.5583 15.0703 17.7847 14.6487 18.0022 14.229ZM7.97797 14.23C8.19663 14.6524 8.42438 15.0758 8.66961 15.5006C8.86159 15.8331 9.05762 16.1577 9.25664 16.4756C8.5583 16.3787 7.89447 16.2561 7.27109 16.111C7.46933 15.5038 7.7065 14.8736 7.97797 14.23ZM6.97148 17.1205C7.91259 17.3434 8.93265 17.5147 10.0143 17.6263C10.7365 18.6708 11.4884 19.6089 12.2456 20.4294C11.9071 20.7595 11.5716 21.0692 11.2432 21.3363C10.3978 22.024 9.59648 22.4909 8.92859 22.7074C8.2607 22.924 7.76225 22.8954 7.39094 22.681C7.01963 22.4667 6.74619 22.0494 6.59977 21.3628C6.45334 20.6761 6.45739 19.7493 6.63023 18.6734C6.70865 18.1853 6.82583 17.6626 6.97148 17.1205ZM19.0117 17.1246C19.1585 17.6697 19.2762 18.1948 19.355 18.6856C19.528 19.7624 19.5323 20.6903 19.3855 21.379C19.2386 22.0677 18.9629 22.488 18.5882 22.7044C18.2135 22.9208 17.7112 22.95 17.0414 22.7328C16.3716 22.5157 15.5699 22.047 14.7237 21.3587C14.393 21.0897 14.0552 20.7784 13.7142 20.4456C14.4763 19.6221 15.2339 18.6789 15.9608 17.6283C17.0452 17.5175 18.068 17.3472 19.0117 17.1246ZM11.3712 17.7329C11.9051 17.762 12.446 17.7817 13.0002 17.7817C13.5361 17.7817 14.0595 17.7632 14.5765 17.736C14.048 18.449 13.5093 19.0972 12.9728 19.6809C12.4366 19.0959 11.8989 18.4466 11.3712 17.7329Z" fill="white"/>
</svg>
